<svg width="99" height="16" viewBox="0 0 99 16" fill="none" xmlns="http://www.w3.org/2000/svg">
<path d="M7.8642 0L9.62982 5.22767H15.3435L10.721 8.45855L12.4867 13.6862L7.8642 10.4553L3.24174 13.6862L5.00736 8.45855L0.384901 5.22767H6.09858L7.8642 0Z" fill="#2E1E00" fill-opacity="0.75"/>
<path d="M28.4306 0L30.1962 5.22767H35.9099L31.2874 8.45855L33.0531 13.6862L28.4306 10.4553L23.8081 13.6862L25.5738 8.45855L20.9513 5.22767H26.665L28.4306 0Z" fill="#2E1E00" fill-opacity="0.75"/>
<path d="M48.9999 0L50.7656 5.22767H56.4792L51.8568 8.45855L53.6224 13.6862L48.9999 10.4553L44.3775 13.6862L46.1431 8.45855L41.5206 5.22767H47.2343L48.9999 0Z" fill="#2E1E00" fill-opacity="0.75"/>
<path d="M69.5678 0L71.3334 5.22767H77.0471L72.4246 8.45855L74.1903 13.6862L69.5678 10.4553L64.9454 13.6862L66.711 8.45855L62.0885 5.22767H67.8022L69.5678 0Z" fill="#2E1E00" fill-opacity="0.75"/>
<path d="M90.1376 0L91.9033 5.22767H97.6169L92.9945 8.45855L94.7601 13.6862L90.1376 10.4553L85.5152 13.6862L87.2808 8.45855L82.6583 5.22767H88.372L90.1376 0Z" fill="#2E1E00" fill-opacity="0.75"/>
</svg>
